<svg width="70" height="70" viewBox="0 0 70 70" fill="none" xmlns="http://www.w3.org/2000/svg">
<path d="M63.1545 35.6904C62.8811 35.0396 62.2371 34.6199 61.559 34.393L35.968 24.2102C35.3372 24.0133 34.6614 24.0133 34.0307 24.2102L8.46426 34.3984C7.78067 34.6117 7.12031 35.0506 6.84961 35.7014C6.57891 36.3521 6.44766 36.9824 6.71289 37.7631L13.0744 54.0531C13.1555 54.2534 13.2981 54.4228 13.4817 54.5368C13.6652 54.6508 13.8802 54.7036 14.0957 54.6875C17.7447 54.4578 20.974 52.6053 23.4445 50.2441C23.6387 50.0617 23.8952 49.9601 24.1616 49.9601C24.4281 49.9601 24.6845 50.0617 24.8787 50.2441C27.5201 52.7734 31.0352 54.6875 35 54.6875C38.9648 54.6875 42.4594 52.7734 45.1008 50.2387C45.2952 50.0561 45.5519 49.9545 45.8186 49.9545C46.0852 49.9545 46.3419 50.0561 46.5363 50.2387C49.0068 52.6012 52.2361 54.4578 55.8852 54.6875C56.1 54.7038 56.3144 54.6516 56.4977 54.5383C56.6809 54.4251 56.8236 54.2566 56.9051 54.0572L63.2898 37.7658C63.5606 37.1123 63.4252 36.3426 63.1545 35.6904V35.6904Z" stroke="#212529" stroke-width="2" stroke-miterlimit="10"/>
<path d="M56.875 64.6872C56.875 64.5194 56.8297 64.3547 56.7441 64.2104C56.6585 64.066 56.5356 63.9474 56.3883 63.8669C52.6859 61.8777 49.3104 58.8329 47.8256 57.3044C47.605 57.0731 47.3106 56.9259 46.9932 56.8882C46.6758 56.8506 46.3552 56.9247 46.0865 57.098C39.2055 61.5304 30.8274 61.5331 23.9449 57.1048C23.6739 56.9298 23.3502 56.8553 23.03 56.8943C22.7097 56.9333 22.4133 57.0832 22.1922 57.3181C20.7197 58.8603 17.3811 61.8708 13.6568 63.8464C13.5091 63.9213 13.3828 64.0324 13.2897 64.1694C13.1967 64.3065 13.14 64.4649 13.125 64.6298C13.1139 64.7704 13.1352 64.9116 13.1874 65.0425C13.2395 65.1735 13.3211 65.2908 13.4257 65.3852C13.5303 65.4797 13.6553 65.5489 13.7909 65.5874C13.9265 65.6259 14.0691 65.6327 14.2078 65.6074C17.0584 65.0359 19.8133 63.737 22.4383 62.3494C22.6067 62.2607 22.7939 62.2137 22.9842 62.2122C23.1745 62.2108 23.3623 62.255 23.532 62.3411C27.087 64.15 31.0192 65.0931 35.0079 65.0936C38.9966 65.0941 42.929 64.1519 46.4844 62.3439C46.656 62.2569 46.846 62.2123 47.0384 62.2137C47.2308 62.2151 47.4201 62.2626 47.5904 62.3521C50.2018 63.7193 52.9525 65.0304 55.7936 65.606C55.9274 65.6309 56.065 65.6258 56.1966 65.591C56.3282 65.5562 56.4504 65.4927 56.5544 65.4049C56.6584 65.3171 56.7416 65.2073 56.798 65.0834C56.8544 64.9595 56.8826 64.8247 56.8805 64.6886L56.875 64.6872Z" fill="#212529"/>
<path d="M35 25.1016V54.2022M43.75 13.125V9.84375C43.7475 8.97428 43.401 8.14115 42.7862 7.52635C42.1713 6.91154 41.3382 6.56502 40.4688 6.5625H29.5312C28.6618 6.56502 27.8287 6.91154 27.2138 7.52635C26.599 8.14115 26.2525 8.97428 26.25 9.84375V13.125H43.75ZM56.875 31.8555V19.6875C56.87 17.9486 56.1769 16.2823 54.9473 15.0527C53.7177 13.8231 52.0514 13.13 50.3125 13.125H19.6875C17.9486 13.13 16.2823 13.8231 15.0527 15.0527C13.8231 16.2823 13.13 17.9486 13.125 19.6875V32.2656L56.875 31.8555Z" stroke="#212529" stroke-width="2" stroke-linecap="round" stroke-linejoin="round"/>
</svg>
