<svg width="70" height="70" viewBox="0 0 70 70" fill="none" xmlns="http://www.w3.org/2000/svg">
<path d="M21.875 42.1805L10.5684 47.2541C8.16211 48.3479 8.16211 50.1389 10.5684 51.2326L30.8027 60.4611C33.1119 61.5125 36.9127 61.5125 39.2219 60.4611L59.4563 51.2326C61.8625 50.1389 61.8625 48.3479 59.4563 47.2541L48.527 41.9945M59.4453 18.8193L39.025 9.50879C36.8115 8.49707 33.1885 8.49707 30.975 9.50879L10.5684 18.8193C8.16211 19.9131 8.16211 21.7027 10.5684 22.7965L30.8027 32.025C33.1119 33.0777 36.9127 33.0777 39.2219 32.025L59.4563 22.7965C61.8516 21.7027 61.8516 19.9117 59.4453 18.8193Z" stroke="#212529" stroke-width="2" stroke-linecap="round" stroke-linejoin="round"/>
<path d="M21.875 27.9563L10.5547 33.0368C8.14844 34.1305 8.14844 35.9215 10.5547 37.0153L30.7891 46.2424C33.0982 47.2952 36.899 47.2952 39.2082 46.2424L59.4426 37.0153C61.8625 35.9215 61.8625 34.1305 59.4563 33.0368L48.125 27.9563" stroke="#212529" stroke-width="2" stroke-linecap="round" stroke-linejoin="round"/>
</svg>
