<svg width="70" height="70" viewBox="0 0 70 70" fill="none" xmlns="http://www.w3.org/2000/svg">
<path d="M35 39.375C44.665 39.375 52.5 31.54 52.5 21.875C52.5 12.21 44.665 4.375 35 4.375C25.335 4.375 17.5 12.21 17.5 21.875C17.5 31.54 25.335 39.375 35 39.375Z" stroke="#212529" stroke-width="2" stroke-linecap="round" stroke-linejoin="round"/>
<path d="M19.6396 31.1472L6.5625 54.6875L18.4379 54.63C18.8184 54.6281 19.1928 54.7255 19.5241 54.9125C19.8555 55.0995 20.1323 55.3697 20.3273 55.6964L26.25 65.625L38.3264 39.0578" stroke="#212529" stroke-width="2" stroke-linecap="round" stroke-linejoin="round"/>
<path d="M50.1129 30.625L63.4375 54.6875L51.5621 54.6301C51.1816 54.6282 50.8072 54.7255 50.4759 54.9125C50.1445 55.0995 49.8677 55.3698 49.6727 55.6965L43.75 65.625L35 46.375" stroke="#212529" stroke-width="2" stroke-linecap="round" stroke-linejoin="round"/>
<path d="M35 30.625C39.8325 30.625 43.75 26.7075 43.75 21.875C43.75 17.0425 39.8325 13.125 35 13.125C30.1675 13.125 26.25 17.0425 26.25 21.875C26.25 26.7075 30.1675 30.625 35 30.625Z" stroke="#212529" stroke-width="2" stroke-linecap="round" stroke-linejoin="round"/>
</svg>
